<?xml version="1.0" encoding="utf-8" standalone="no"?>
<!DOCTYPE svg PUBLIC "-//W3C//DTD SVG 1.1//EN"
  "http://www.w3.org/Graphics/SVG/1.1/DTD/svg11.dtd">
<svg xmlns:xlink="http://www.w3.org/1999/xlink" width="292.253119pt" height="247.194pt" viewBox="0 0 292.253119 247.194" xmlns="http://www.w3.org/2000/svg" version="1.1">
 <metadata>
  <rdf:RDF xmlns:dc="http://purl.org/dc/elements/1.1/" xmlns:cc="http://creativecommons.org/ns#" xmlns:rdf="http://www.w3.org/1999/02/22-rdf-syntax-ns#">
   <cc:Work>
    <dc:type rdf:resource="http://purl.org/dc/dcmitype/StillImage"/>
    <dc:date>2026-04-10T21:45:35.866938</dc:date>
    <dc:format>image/svg+xml</dc:format>
    <dc:creator>
     <cc:Agent>
      <dc:title>Matplotlib v3.10.8, https://matplotlib.org/</dc:title>
     </cc:Agent>
    </dc:creator>
   </cc:Work>
  </rdf:RDF>
 </metadata>
 <defs>
  <style type="text/css">*{stroke-linejoin: round; stroke-linecap: butt}</style>
 </defs>
 <g id="figure_1">
  <g id="patch_1">
   <path d="M 0 247.194 
L 292.253119 247.194 
L 292.253119 0 
L 0 0 
z
" style="fill: #0d1117"/>
  </g>
  <g id="axes_1">
   <g id="patch_2">
    <path d="M 79.732209 91.00341 
L 164.234109 91.00341 
L 164.234109 69.27435 
L 79.732209 69.27435 
z
" clip-path="url(#p6127c7f620)" style="fill: #4ecdc4; opacity: 0.92"/>
   </g>
   <g id="patch_3">
    <path d="M 97.839759 119.97549 
L 176.305809 119.97549 
L 176.305809 98.24643 
L 97.839759 98.24643 
z
" clip-path="url(#p6127c7f620)" style="fill: #ff6b6b; opacity: 0.92"/>
   </g>
   <g id="patch_4">
    <path d="M 118.965234 148.94757 
L 191.395434 148.94757 
L 191.395434 127.21851 
L 118.965234 127.21851 
z
" clip-path="url(#p6127c7f620)" style="fill: #58a4b0; opacity: 0.92"/>
   </g>
   <g id="patch_5">
    <path d="M 140.090709 177.91965 
L 206.485059 177.91965 
L 206.485059 156.19059 
L 140.090709 156.19059 
z
" clip-path="url(#p6127c7f620)" style="fill: #ffb347; opacity: 0.92"/>
   </g>
   <g id="text_1">
    <!-- { -->
    <g style="fill: #58a4b0; opacity: 0.55" transform="translate(2.88 161.207156) scale(1.35 -1.35)">
     <defs>
      <path id="DejaVuSansMono-7b" d="M 3163 -594 
L 3163 -1044 
L 2963 -1044 
Q 2184 -1044 1920 -812 
Q 1656 -581 1656 109 
L 1656 856 
Q 1656 1328 1489 1509 
Q 1322 1691 884 1691 
L 691 1691 
L 691 2138 
L 884 2138 
Q 1325 2138 1490 2316 
Q 1656 2494 1656 2963 
L 1656 3713 
Q 1656 4403 1920 4633 
Q 2184 4863 2963 4863 
L 3163 4863 
L 3163 4416 
L 2944 4416 
Q 2506 4416 2373 4280 
Q 2241 4144 2241 3700 
L 2241 2925 
Q 2241 2434 2098 2212 
Q 1956 1991 1613 1913 
Q 1959 1828 2100 1606 
Q 2241 1384 2241 897 
L 2241 122 
Q 2241 -325 2373 -459 
Q 2506 -594 2944 -594 
L 3163 -594 
z
" transform="scale(0.015625)"/>
     </defs>
     <use xlink:href="#DejaVuSansMono-7b"/>
    </g>
   </g>
   <g id="text_2">
    <!-- } -->
    <g style="fill: #58a4b0; opacity: 0.55" transform="translate(208.0989 161.207156) scale(1.35 -1.35)">
     <defs>
      <path id="DejaVuSansMono-7d" d="M 691 -594 
L 903 -594 
Q 1344 -594 1478 -456 
Q 1613 -319 1613 122 
L 1613 897 
Q 1613 1384 1753 1606 
Q 1894 1828 2241 1913 
Q 1897 1991 1755 2212 
Q 1613 2434 1613 2925 
L 1613 3700 
Q 1613 4141 1478 4278 
Q 1344 4416 903 4416 
L 691 4416 
L 691 4863 
L 884 4863 
Q 1663 4863 1925 4633 
Q 2188 4403 2188 3713 
L 2188 2963 
Q 2188 2494 2355 2316 
Q 2522 2138 2963 2138 
L 3163 2138 
L 3163 1691 
L 2963 1691 
Q 2522 1691 2355 1509 
Q 2188 1328 2188 856 
L 2188 109 
Q 2188 -581 1925 -812 
Q 1663 -1044 884 -1044 
L 691 -1044 
L 691 -594 
z
" transform="scale(0.015625)"/>
     </defs>
     <use xlink:href="#DejaVuSansMono-7d"/>
    </g>
   </g>
  </g>
 </g>
 <defs>
  <clipPath id="p6127c7f620">
   <rect x="25.409559" y="2.88" width="241.434" height="241.434"/>
  </clipPath>
 </defs>
</svg>
