<?xml version="1.0" encoding="utf-8" standalone="no"?>
<!DOCTYPE svg PUBLIC "-//W3C//DTD SVG 1.1//EN"
  "http://www.w3.org/Graphics/SVG/1.1/DTD/svg11.dtd">
<svg xmlns:xlink="http://www.w3.org/1999/xlink" width="285.682704pt" height="256.0536pt" viewBox="0 0 285.682704 256.0536" xmlns="http://www.w3.org/2000/svg" version="1.1">
 <metadata>
  <rdf:RDF xmlns:dc="http://purl.org/dc/elements/1.1/" xmlns:cc="http://creativecommons.org/ns#" xmlns:rdf="http://www.w3.org/1999/02/22-rdf-syntax-ns#">
   <cc:Work>
    <dc:type rdf:resource="http://purl.org/dc/dcmitype/StillImage"/>
    <dc:date>2026-04-07T17:19:21.399830</dc:date>
    <dc:format>image/svg+xml</dc:format>
    <dc:creator>
     <cc:Agent>
      <dc:title>Matplotlib v3.10.8, https://matplotlib.org/</dc:title>
     </cc:Agent>
    </dc:creator>
   </cc:Work>
  </rdf:RDF>
 </metadata>
 <defs>
  <style type="text/css">*{stroke-linejoin: round; stroke-linecap: butt}</style>
 </defs>
 <g id="figure_1">
  <g id="patch_1">
   <path d="M 0 256.0536 
L 285.682704 256.0536 
L 285.682704 0 
L 0 0 
z
" style="fill: #0d1117"/>
  </g>
  <g id="axes_1">
   <g id="patch_2">
    <path d="M 40.419912 250.932528 
L 245.262792 250.932528 
Q 265.74708 250.932528 265.74708 230.44824 
L 265.74708 25.60536 
Q 265.74708 5.121072 245.262792 5.121072 
L 40.419912 5.121072 
Q 19.935624 5.121072 19.935624 25.60536 
L 19.935624 230.44824 
Q 19.935624 250.932528 40.419912 250.932528 
z
" clip-path="url(#p29f3b8924a)" style="fill: #161b22; stroke: #30363d; stroke-width: 2; stroke-linejoin: miter"/>
   </g>
   <g id="line2d_1">
    <path d="M 53.222592 202.922478 
L 195.972474 202.922478 
" clip-path="url(#p29f3b8924a)" style="fill: none; stroke: #30363d; stroke-width: 1.5; stroke-linecap: square"/>
   </g>
   <g id="line2d_2">
    <path d="M 53.222592 206.763282 
L 53.222592 202.922478 
" clip-path="url(#p29f3b8924a)" style="fill: none; stroke: #30363d; stroke-width: 1.5; stroke-linecap: square"/>
   </g>
   <g id="line2d_3">
    <path d="M 82.668756 206.763282 
L 82.668756 202.922478 
" clip-path="url(#p29f3b8924a)" style="fill: none; stroke: #30363d; stroke-width: 1.5; stroke-linecap: square"/>
   </g>
   <g id="line2d_4">
    <path d="M 112.11492 206.763282 
L 112.11492 202.922478 
" clip-path="url(#p29f3b8924a)" style="fill: none; stroke: #30363d; stroke-width: 1.5; stroke-linecap: square"/>
   </g>
   <g id="line2d_5">
    <path d="M 141.561084 206.763282 
L 141.561084 202.922478 
" clip-path="url(#p29f3b8924a)" style="fill: none; stroke: #30363d; stroke-width: 1.5; stroke-linecap: square"/>
   </g>
   <g id="line2d_6">
    <path d="M 171.007248 206.763282 
L 171.007248 202.922478 
" clip-path="url(#p29f3b8924a)" style="fill: none; stroke: #30363d; stroke-width: 1.5; stroke-linecap: square"/>
   </g>
   <g id="line2d_7">
    <path d="M 200.453412 206.763282 
L 200.453412 202.922478 
" clip-path="url(#p29f3b8924a)" style="fill: none; stroke: #30363d; stroke-width: 1.5; stroke-linecap: square"/>
   </g>
   <g id="patch_3">
    <path d="M 57.70353 193.960602 
L 157.564434 193.960602 
Q 162.045372 193.960602 162.045372 189.479664 
L 162.045372 176.676984 
Q 162.045372 172.196046 157.564434 172.196046 
L 57.70353 172.196046 
Q 53.222592 172.196046 53.222592 176.676984 
L 53.222592 189.479664 
Q 53.222592 193.960602 57.70353 193.960602 
z
" clip-path="url(#p29f3b8924a)" style="fill: #4ecdc4; opacity: 0.92"/>
   </g>
   <g id="patch_4">
    <path d="M 80.10822 163.23417 
L 202.373814 163.23417 
Q 206.854752 163.23417 206.854752 158.753232 
L 206.854752 145.950552 
Q 206.854752 141.469614 202.373814 141.469614 
L 80.10822 141.469614 
Q 75.627282 141.469614 75.627282 145.950552 
L 75.627282 158.753232 
Q 75.627282 163.23417 80.10822 163.23417 
z
" clip-path="url(#p29f3b8924a)" style="fill: #ff6b6b; opacity: 0.92"/>
   </g>
   <g id="patch_5">
    <path d="M 114.035322 132.507738 
L 180.609258 132.507738 
Q 185.090196 132.507738 185.090196 128.0268 
L 185.090196 115.22412 
Q 185.090196 110.743182 180.609258 110.743182 
L 114.035322 110.743182 
Q 109.554384 110.743182 109.554384 115.22412 
L 109.554384 128.0268 
Q 109.554384 132.507738 114.035322 132.507738 
z
" clip-path="url(#p29f3b8924a)" style="fill: #58a4b0; opacity: 0.92"/>
   </g>
   <g id="patch_6">
    <path d="M 71.786478 101.781306 
L 174.848052 101.781306 
Q 179.32899 101.781306 179.32899 97.300368 
L 179.32899 84.497688 
Q 179.32899 80.01675 174.848052 80.01675 
L 71.786478 80.01675 
Q 67.30554 80.01675 67.30554 84.497688 
L 67.30554 97.300368 
Q 67.30554 101.781306 71.786478 101.781306 
z
" clip-path="url(#p29f3b8924a)" style="fill: #ffb347; opacity: 0.92"/>
   </g>
   <g id="patch_7">
    <path d="M 94.831302 71.054874 
L 180.609258 71.054874 
Q 185.090196 71.054874 185.090196 66.573936 
L 185.090196 53.771256 
Q 185.090196 49.290318 180.609258 49.290318 
L 94.831302 49.290318 
Q 90.350364 49.290318 90.350364 53.771256 
L 90.350364 66.573936 
Q 90.350364 71.054874 94.831302 71.054874 
z
" clip-path="url(#p29f3b8924a)" style="fill: #a8dadc; opacity: 0.92"/>
   </g>
   <g id="patch_8">
    <path d="M 57.063396 176.03685 
L 158.204568 176.03685 
Q 159.484836 176.03685 159.484836 174.756582 
L 159.484836 174.756582 
Q 159.484836 173.476314 158.204568 173.476314 
L 57.063396 173.476314 
Q 55.783128 173.476314 55.783128 174.756582 
L 55.783128 174.756582 
Q 55.783128 176.03685 57.063396 176.03685 
z
" clip-path="url(#p29f3b8924a)" style="fill: #ffffff; opacity: 0.12"/>
   </g>
   <g id="patch_9">
    <path d="M 79.468086 145.310418 
L 203.013948 145.310418 
Q 204.294216 145.310418 204.294216 144.03015 
L 204.294216 144.03015 
Q 204.294216 142.749882 203.013948 142.749882 
L 79.468086 142.749882 
Q 78.187818 142.749882 78.187818 144.03015 
L 78.187818 144.03015 
Q 78.187818 145.310418 79.468086 145.310418 
z
" clip-path="url(#p29f3b8924a)" style="fill: #ffffff; opacity: 0.12"/>
   </g>
   <g id="patch_10">
    <path d="M 113.395188 114.583986 
L 181.249392 114.583986 
Q 182.52966 114.583986 182.52966 113.303718 
L 182.52966 113.303718 
Q 182.52966 112.02345 181.249392 112.02345 
L 113.395188 112.02345 
Q 112.11492 112.02345 112.11492 113.303718 
L 112.11492 113.303718 
Q 112.11492 114.583986 113.395188 114.583986 
z
" clip-path="url(#p29f3b8924a)" style="fill: #ffffff; opacity: 0.12"/>
   </g>
   <g id="patch_11">
    <path d="M 71.146344 83.857554 
L 175.488186 83.857554 
Q 176.768454 83.857554 176.768454 82.577286 
L 176.768454 82.577286 
Q 176.768454 81.297018 175.488186 81.297018 
L 71.146344 81.297018 
Q 69.866076 81.297018 69.866076 82.577286 
L 69.866076 82.577286 
Q 69.866076 83.857554 71.146344 83.857554 
z
" clip-path="url(#p29f3b8924a)" style="fill: #ffffff; opacity: 0.12"/>
   </g>
   <g id="patch_12">
    <path d="M 94.191168 53.131122 
L 181.249392 53.131122 
Q 182.52966 53.131122 182.52966 51.850854 
L 182.52966 51.850854 
Q 182.52966 50.570586 181.249392 50.570586 
L 94.191168 50.570586 
Q 92.9109 50.570586 92.9109 51.850854 
L 92.9109 51.850854 
Q 92.9109 53.131122 94.191168 53.131122 
z
" clip-path="url(#p29f3b8924a)" style="fill: #ffffff; opacity: 0.12"/>
   </g>
   <g id="text_1">
    <!-- { -->
    <g style="fill: #58a4b0; opacity: 0.55" transform="translate(0 154.5168) scale(0.96 -0.96)">
     <defs>
      <path id="DejaVuSansMono-Bold-7b" d="M 3291 -447 
L 3291 -1044 
L 2822 -1044 
Q 2044 -1044 1780 -812 
Q 1516 -581 1516 109 
L 1516 781 
Q 1516 1253 1348 1433 
Q 1181 1613 744 1613 
L 550 1613 
L 550 2209 
L 744 2209 
Q 1181 2209 1348 2387 
Q 1516 2566 1516 3041 
L 1516 3713 
Q 1516 4403 1780 4633 
Q 2044 4863 2822 4863 
L 3291 4863 
L 3291 4269 
L 2906 4269 
Q 2581 4269 2472 4137 
Q 2363 4006 2363 3559 
L 2363 2906 
Q 2363 2391 2209 2181 
Q 2056 1972 1663 1913 
Q 2056 1847 2209 1634 
Q 2363 1422 2363 909 
L 2363 269 
Q 2363 -181 2472 -314 
Q 2581 -447 2906 -447 
L 3291 -447 
z
" transform="scale(0.015625)"/>
     </defs>
     <use xlink:href="#DejaVuSansMono-Bold-7b"/>
    </g>
   </g>
   <g id="text_2">
    <!-- } -->
    <g style="fill: #58a4b0; opacity: 0.55" transform="translate(227.887704 154.5168) scale(0.96 -0.96)">
     <defs>
      <path id="DejaVuSansMono-Bold-7d" d="M 563 -447 
L 941 -447 
Q 1266 -447 1378 -312 
Q 1491 -178 1491 269 
L 1491 909 
Q 1491 1422 1644 1634 
Q 1797 1847 2188 1913 
Q 1794 1972 1642 2181 
Q 1491 2391 1491 2906 
L 1491 3559 
Q 1491 4000 1380 4134 
Q 1269 4269 941 4269 
L 563 4269 
L 563 4863 
L 1031 4863 
Q 1806 4863 2067 4633 
Q 2328 4403 2328 3713 
L 2328 3041 
Q 2328 2569 2498 2389 
Q 2669 2209 3109 2209 
L 3303 2209 
L 3303 1613 
L 3109 1613 
Q 2669 1613 2498 1431 
Q 2328 1250 2328 781 
L 2328 109 
Q 2328 -581 2067 -812 
Q 1806 -1044 1031 -1044 
L 563 -1044 
L 563 -447 
z
" transform="scale(0.015625)"/>
     </defs>
     <use xlink:href="#DejaVuSansMono-Bold-7d"/>
    </g>
   </g>
   <g id="text_3">
    <!-- jsonantt -->
    <g style="fill: #c9d1d9; opacity: 0.95" transform="translate(89.862602 239.653463) scale(0.22 -0.22)">
     <defs>
      <path id="DejaVuSansMono-Bold-6a" d="M 2656 134 
Q 2656 -653 2373 -989 
Q 2091 -1325 1434 -1325 
L 447 -1325 
L 447 -622 
L 1178 -622 
Q 1484 -622 1612 -450 
Q 1741 -278 1741 134 
L 1741 2797 
L 813 2797 
L 813 3500 
L 2656 3500 
L 2656 134 
z
M 2656 4134 
L 1741 4134 
L 1741 5203 
L 2656 5203 
L 2656 4134 
z
" transform="scale(0.015625)"/>
      <path id="DejaVuSansMono-Bold-73" d="M 3097 3391 
L 3097 2591 
Q 2844 2753 2570 2836 
Q 2297 2919 2022 2919 
Q 1716 2919 1559 2830 
Q 1403 2741 1403 2566 
Q 1403 2316 2072 2159 
L 2106 2150 
L 2369 2088 
Q 2869 1969 3101 1705 
Q 3334 1441 3334 991 
Q 3334 450 2979 179 
Q 2625 -91 1913 -91 
Q 1597 -91 1265 -36 
Q 934 19 594 128 
L 594 928 
Q 897 756 1211 665 
Q 1525 575 1819 575 
Q 2141 575 2306 669 
Q 2472 763 2472 941 
Q 2472 1116 2355 1209 
Q 2238 1303 1797 1409 
L 1544 1466 
Q 1019 1584 778 1837 
Q 538 2091 538 2516 
Q 538 3022 903 3303 
Q 1269 3584 1931 3584 
Q 2228 3584 2523 3536 
Q 2819 3488 3097 3391 
z
" transform="scale(0.015625)"/>
      <path id="DejaVuSansMono-Bold-6f" d="M 1925 2841 
Q 1597 2841 1409 2552 
Q 1222 2263 1222 1747 
Q 1222 1231 1409 942 
Q 1597 653 1925 653 
Q 2256 653 2443 942 
Q 2631 1231 2631 1747 
Q 2631 2263 2443 2552 
Q 2256 2841 1925 2841 
z
M 306 1747 
Q 306 2594 745 3089 
Q 1184 3584 1925 3584 
Q 2669 3584 3108 3089 
Q 3547 2594 3547 1747 
Q 3547 900 3108 404 
Q 2669 -91 1925 -91 
Q 1184 -91 745 404 
Q 306 900 306 1747 
z
" transform="scale(0.015625)"/>
      <path id="DejaVuSansMono-Bold-6e" d="M 3347 2272 
L 3347 0 
L 2438 0 
L 2438 2131 
Q 2438 2513 2330 2677 
Q 2222 2841 1978 2841 
Q 1731 2841 1589 2619 
Q 1447 2397 1447 2003 
L 1447 0 
L 538 0 
L 538 3500 
L 1447 3500 
L 1447 2975 
Q 1544 3266 1778 3425 
Q 2013 3584 2344 3584 
Q 2841 3584 3094 3254 
Q 3347 2925 3347 2272 
z
" transform="scale(0.015625)"/>
      <path id="DejaVuSansMono-Bold-61" d="M 2188 1644 
Q 1675 1644 1472 1512 
Q 1269 1381 1269 1063 
Q 1269 825 1409 684 
Q 1550 544 1791 544 
Q 2153 544 2353 817 
Q 2553 1091 2553 1581 
L 2553 1644 
L 2188 1644 
z
M 3463 1997 
L 3463 0 
L 2553 0 
L 2553 391 
Q 2388 159 2128 34 
Q 1869 -91 1556 -91 
Q 959 -91 626 225 
Q 294 541 294 1106 
Q 294 1719 691 2011 
Q 1088 2303 1919 2303 
L 2553 2303 
L 2553 2456 
Q 2553 2678 2392 2792 
Q 2231 2906 1919 2906 
Q 1591 2906 1283 2823 
Q 975 2741 641 2559 
L 641 3341 
Q 944 3466 1256 3525 
Q 1569 3584 1919 3584 
Q 2772 3584 3117 3237 
Q 3463 2891 3463 1997 
z
" transform="scale(0.015625)"/>
      <path id="DejaVuSansMono-Bold-74" d="M 2156 4494 
L 2156 3500 
L 3353 3500 
L 3353 2797 
L 2156 2797 
L 2156 1141 
Q 2156 906 2270 804 
Q 2384 703 2650 703 
L 3353 703 
L 3353 0 
L 2584 0 
Q 1797 0 1519 251 
Q 1241 503 1241 1184 
L 1241 2797 
L 347 2797 
L 347 3500 
L 1241 3500 
L 1241 4494 
L 2156 4494 
z
" transform="scale(0.015625)"/>
     </defs>
     <use xlink:href="#DejaVuSansMono-Bold-6a"/>
     <use xlink:href="#DejaVuSansMono-Bold-73" transform="translate(60.205078 0)"/>
     <use xlink:href="#DejaVuSansMono-Bold-6f" transform="translate(120.410156 0)"/>
     <use xlink:href="#DejaVuSansMono-Bold-6e" transform="translate(180.615234 0)"/>
     <use xlink:href="#DejaVuSansMono-Bold-61" transform="translate(240.820312 0)"/>
     <use xlink:href="#DejaVuSansMono-Bold-6e" transform="translate(301.025391 0)"/>
     <use xlink:href="#DejaVuSansMono-Bold-74" transform="translate(361.230469 0)"/>
     <use xlink:href="#DejaVuSansMono-Bold-74" transform="translate(421.435547 0)"/>
    </g>
   </g>
  </g>
 </g>
 <defs>
  <clipPath id="p29f3b8924a">
   <rect x="14.814552" y="0" width="256.0536" height="256.0536"/>
  </clipPath>
 </defs>
</svg>
